<svg width="23" height="22" viewBox="0 0 23 22" fill="none" xmlns="http://www.w3.org/2000/svg">
<path d="M11.163 13.006L5.00695 20.233C4.81117 20.4609 4.57044 20.6459 4.29984 20.7764C4.02923 20.9069 3.7346 20.9801 3.43438 20.9915C3.13417 21.0028 2.83484 20.9521 2.55515 20.8424C2.27547 20.7327 2.02145 20.5664 1.80901 20.3539C1.59658 20.1415 1.4303 19.8875 1.3206 19.6078C1.21089 19.3281 1.16013 19.0288 1.17148 18.7286C1.18283 18.4284 1.25606 18.1337 1.38658 17.8631C1.51709 17.5925 1.70208 17.3518 1.92995 17.156L9.15695 11M21.163 10.905L15.068 17M11.258 1L5.16295 7.095M10.496 1.762L5.92495 6.333C5.92495 6.333 8.21095 9.381 10.496 11.667C12.782 13.952 15.83 16.238 15.83 16.238L20.401 11.667C20.401 11.667 18.115 8.619 15.83 6.333C13.544 4.048 10.496 1.762 10.496 1.762Z" stroke="#1E2329" stroke-width="2" stroke-linecap="round" stroke-linejoin="round"/>
</svg>
