<svg width="54" height="51" viewBox="0 0 54 51" fill="none" xmlns="http://www.w3.org/2000/svg">
<path d="M26.9625 27.518L19.5556 35.8024C19.3201 36.0636 19.0304 36.2756 18.7048 36.4253C18.3793 36.5749 18.0248 36.6588 17.6635 36.6718C17.3023 36.6848 16.9422 36.6266 16.6057 36.5009C16.2691 36.3751 15.9635 36.1845 15.7079 35.941C15.4523 35.6975 15.2522 35.4063 15.1203 35.0857C14.9883 34.7651 14.9272 34.422 14.9408 34.0778C14.9545 33.7337 15.0426 33.3959 15.1996 33.0858C15.3567 32.7756 15.5793 32.4996 15.8534 32.2752L24.5489 25.2185M38.9944 25.1096L31.6609 32.0963M27.0768 13.7554L19.7433 20.7421M26.16 14.6289L20.6602 19.8686C20.6602 19.8686 23.4107 23.3626 26.16 25.9831C28.9105 28.6024 32.5778 31.2229 32.5778 31.2229L38.0776 25.9831C38.0776 25.9831 35.3271 22.4891 32.5778 19.8686C29.8273 17.2493 26.16 14.6289 26.16 14.6289Z" stroke="#1E2329" stroke-width="2.29262" stroke-linecap="round" stroke-linejoin="round"/>
<circle cx="37.0038" cy="25.2184" r="5.73156" fill="#1E2329"/>
<path d="M41.7226 24.8208H39.2159V22.4327C39.2159 22.3271 39.1719 22.2259 39.0935 22.1512C39.0152 22.0766 38.9089 22.0347 38.7981 22.0347C38.6873 22.0347 38.5811 22.0766 38.5027 22.1512C38.4244 22.2259 38.3804 22.3271 38.3804 22.4327V24.8208H35.8737C35.7629 24.8208 35.6566 24.8628 35.5783 24.9374C35.4999 25.0121 35.4559 25.1133 35.4559 25.2189C35.4559 25.3244 35.4999 25.4257 35.5783 25.5003C35.6566 25.575 35.7629 25.6169 35.8737 25.6169H38.3804V28.005C38.3804 28.1106 38.4244 28.2118 38.5027 28.2865C38.5811 28.3611 38.6873 28.4031 38.7981 28.4031C38.9089 28.4031 39.0152 28.3611 39.0935 28.2865C39.1719 28.2118 39.2159 28.1106 39.2159 28.005V25.6169H41.7226C41.8334 25.6169 41.9396 25.575 42.018 25.5003C42.0963 25.4257 42.1403 25.3244 42.1403 25.2189C42.1403 25.1133 42.0963 25.0121 42.018 24.9374C41.9396 24.8628 41.8334 24.8208 41.7226 24.8208Z" fill="#EAECEF"/>
</svg>
