<svg width="12" height="12" viewBox="0 0 12 12" fill="none" xmlns="http://www.w3.org/2000/svg">
<path d="M5.50684 1.96807C7.9359 1.96807 9.9123 3.94447 9.9123 6.37354C9.9123 8.8026 7.9359 10.779 5.50684 10.779C3.07777 10.779 1.10137 8.8026 1.10137 6.37354C1.10137 3.94447 3.07777 1.96807 5.50684 1.96807ZM5.50684 0.866699C2.46541 0.866699 0 3.33211 0 6.37354C0 9.41496 2.46541 11.8804 5.50684 11.8804C8.54826 11.8804 11.0137 9.41496 11.0137 6.37354C11.0137 3.33211 8.54826 0.866699 5.50684 0.866699ZM7.59943 8.24586L6.05752 6.19016V3.62012H4.95615V6.55691L6.71834 8.90613L7.59943 8.24586Z" fill="#1E2329"/>
</svg>
