<svg width="17" height="20" viewBox="0 0 17 20" fill="none" xmlns="http://www.w3.org/2000/svg">
<path d="M6.4187 2.4168L5.71362 3.4707H11.0945L10.3894 2.4168C10.3337 2.33516 10.241 2.2832 10.1408 2.2832H6.66362C6.56343 2.2832 6.47065 2.33145 6.41499 2.4168H6.4187ZM11.8738 1.42969L13.2357 3.4707H13.7478H15.5291H15.8259C16.3195 3.4707 16.7166 3.86777 16.7166 4.36133C16.7166 4.85488 16.3195 5.25195 15.8259 5.25195H15.5291V16.5332C15.5291 18.1734 14.2005 19.502 12.5603 19.502H4.2478C2.60757 19.502 1.27905 18.1734 1.27905 16.5332V5.25195H0.982178C0.488623 5.25195 0.0915527 4.85488 0.0915527 4.36133C0.0915527 3.86777 0.488623 3.4707 0.982178 3.4707H1.27905H3.0603H3.57241L4.93433 1.42598C5.32026 0.850781 5.96968 0.501953 6.66362 0.501953H10.1408C10.8347 0.501953 11.4841 0.850781 11.8701 1.42598L11.8738 1.42969ZM3.0603 5.25195V16.5332C3.0603 17.19 3.59097 17.7207 4.2478 17.7207H12.5603C13.2171 17.7207 13.7478 17.19 13.7478 16.5332V5.25195H3.0603ZM6.02905 7.62695V15.3457C6.02905 15.6723 5.76187 15.9395 5.4353 15.9395C5.10874 15.9395 4.84155 15.6723 4.84155 15.3457V7.62695C4.84155 7.30039 5.10874 7.0332 5.4353 7.0332C5.76187 7.0332 6.02905 7.30039 6.02905 7.62695ZM8.9978 7.62695V15.3457C8.9978 15.6723 8.73062 15.9395 8.40405 15.9395C8.07749 15.9395 7.8103 15.6723 7.8103 15.3457V7.62695C7.8103 7.30039 8.07749 7.0332 8.40405 7.0332C8.73062 7.0332 8.9978 7.30039 8.9978 7.62695ZM11.9666 7.62695V15.3457C11.9666 15.6723 11.6994 15.9395 11.3728 15.9395C11.0462 15.9395 10.7791 15.6723 10.7791 15.3457V7.62695C10.7791 7.30039 11.0462 7.0332 11.3728 7.0332C11.6994 7.0332 11.9666 7.30039 11.9666 7.62695Z" fill="#F6465D"/>
</svg>
