<svg width="20" height="20" viewBox="0 0 20 20" fill="none" xmlns="http://www.w3.org/2000/svg">
<path d="M17.0254 2.54204L17.4744 2.99106C17.8232 3.33989 17.8232 3.90395 17.4744 4.24907L16.3945 5.33267L14.6838 3.62192L15.7637 2.54204C16.1125 2.19321 16.6766 2.19321 17.0217 2.54204H17.0254ZM8.4457 9.86372L13.4258 4.87993L15.1365 6.59067L10.1527 11.5708C10.0451 11.6784 9.91152 11.7563 9.7668 11.7971L7.5959 12.4168L8.21563 10.2459C8.25645 10.1012 8.33437 9.96763 8.44199 9.86001L8.4457 9.86372ZM14.5057 1.28403L7.18398 8.602C6.86113 8.92485 6.62734 9.32192 6.50488 9.7561L5.44355 13.467C5.35449 13.7788 5.43984 14.1127 5.66992 14.3428C5.9 14.5729 6.23398 14.6583 6.5457 14.5692L10.2566 13.5079C10.6945 13.3817 11.0916 13.1479 11.4107 12.8288L18.7324 5.51079C19.7752 4.46802 19.7752 2.77583 18.7324 1.73306L18.2834 1.28403C17.2406 0.24126 15.5484 0.24126 14.5057 1.28403ZM3.92578 2.7313C2.12227 2.7313 0.660156 4.19341 0.660156 5.99692V16.0907C0.660156 17.8942 2.12227 19.3563 3.92578 19.3563H14.0195C15.823 19.3563 17.2852 17.8942 17.2852 16.0907V11.9344C17.2852 11.4409 16.8881 11.0438 16.3945 11.0438C15.901 11.0438 15.5039 11.4409 15.5039 11.9344V16.0907C15.5039 16.9108 14.8396 17.575 14.0195 17.575H3.92578C3.10566 17.575 2.44141 16.9108 2.44141 16.0907V5.99692C2.44141 5.17681 3.10566 4.51255 3.92578 4.51255H8.08203C8.57559 4.51255 8.97266 4.11548 8.97266 3.62192C8.97266 3.12837 8.57559 2.7313 8.08203 2.7313H3.92578Z" fill="#2EBD85"/>
</svg>
