<svg width="11" height="9" viewBox="0 0 11 9" fill="none" xmlns="http://www.w3.org/2000/svg">
<path d="M10.3965 4.38543C9.99904 3.35736 9.30905 2.46828 8.41181 1.82808C7.51457 1.18788 6.4494 0.824623 5.34796 0.783203C4.24651 0.824623 3.18134 1.18788 2.2841 1.82808C1.38686 2.46828 0.696877 3.35736 0.299428 4.38543C0.272586 4.45968 0.272586 4.54098 0.299428 4.61522C0.696877 5.64329 1.38686 6.53237 2.2841 7.17257C3.18134 7.81277 4.24651 8.17603 5.34796 8.21745C6.4494 8.17603 7.51457 7.81277 8.41181 7.17257C9.30905 6.53237 9.99904 5.64329 10.3965 4.61522C10.4233 4.54098 10.4233 4.45968 10.3965 4.38543ZM5.34796 6.69681C4.91354 6.69681 4.48887 6.56799 4.12766 6.32663C3.76645 6.08528 3.48492 5.74224 3.31867 5.34088C3.15243 4.93953 3.10893 4.49789 3.19368 4.07181C3.27843 3.64574 3.48763 3.25436 3.79481 2.94718C4.10199 2.64 4.49337 2.4308 4.91945 2.34605C5.34552 2.2613 5.78716 2.3048 6.18852 2.47104C6.58987 2.63729 6.93291 2.91882 7.17427 3.28003C7.41562 3.64124 7.54444 4.0659 7.54444 4.50033C7.54355 5.0826 7.31185 5.64076 6.90012 6.05249C6.48839 6.46421 5.93023 6.69591 5.34796 6.69681Z" fill="#E2464A"/>
</svg>
