<svg width="16" height="17" viewBox="0 0 16 17" fill="none" xmlns="http://www.w3.org/2000/svg">
<path fill-rule="evenodd" clip-rule="evenodd" d="M13.1216 3.94851C14.1735 5.22753 14.8051 6.8653 14.8051 8.65058C14.8051 12.7416 11.4886 16.058 7.39764 16.058C3.30664 16.058 -0.00976562 12.7416 -0.00976562 8.65058C-0.00976562 4.55958 3.30664 1.24317 7.39764 1.24317C9.1698 1.24317 10.7966 1.86549 12.0714 2.90351L12.4795 2.49549L12.6734 1.46263C12.7488 1.06055 13.136 0.795795 13.5381 0.87128C13.9401 0.946765 14.2049 1.3339 14.1294 1.73598L14.0871 1.96111L14.3123 1.91885C14.7144 1.84336 15.1015 2.10812 15.177 2.51019C15.2525 2.91227 14.9877 3.29941 14.5856 3.37489L13.4894 3.5807L13.1216 3.94851ZM11.017 3.95798C10.0159 3.1847 8.76048 2.72465 7.39764 2.72465C4.12484 2.72465 1.47172 5.37778 1.47172 8.65058C1.47172 11.9234 4.12484 14.5765 7.39764 14.5765C10.6704 14.5765 13.3236 11.9234 13.3236 8.65058C13.3236 7.27458 12.8546 6.00813 12.0678 5.00232L11.0097 6.06038C11.5336 6.78966 11.8421 7.68409 11.8421 8.65058C11.8421 11.1052 9.85224 13.095 7.39764 13.095C4.94304 13.095 2.9532 11.1052 2.9532 8.65058C2.9532 6.19598 4.94304 4.20613 7.39764 4.20613C8.3509 4.20613 9.23407 4.50624 9.95781 5.01714L11.017 3.95798ZM8.8866 6.08835C8.44911 5.83356 7.94042 5.68761 7.39764 5.68761C5.76124 5.68761 4.43468 7.01418 4.43468 8.65058C4.43468 10.287 5.76124 11.6135 7.39764 11.6135C9.03404 11.6135 10.3606 10.287 10.3606 8.65058C10.3606 8.09439 10.2074 7.57399 9.94078 7.1293L8.8234 8.24668C8.8597 8.37508 8.87912 8.51056 8.87912 8.65058C8.87912 9.46878 8.21584 10.1321 7.39764 10.1321C6.57944 10.1321 5.91616 9.46878 5.91616 8.65058C5.91616 7.83238 6.57944 7.16909 7.39764 7.16909C7.523 7.16909 7.64472 7.18466 7.76098 7.21398L8.8866 6.08835Z" fill="#16A34A"/>
</svg>
