<svg width="20" height="18" viewBox="0 0 20 18" fill="none" xmlns="http://www.w3.org/2000/svg">
<path d="M2.5 1.50391C2.5 0.8125 1.94141 0.253906 1.25 0.253906C0.558594 0.253906 0 0.8125 0 1.50391V14.6289C0 16.3555 1.39844 17.7539 3.125 17.7539H18.75C19.4414 17.7539 20 17.1953 20 16.5039C20 15.8125 19.4414 15.2539 18.75 15.2539H3.125C2.78125 15.2539 2.5 14.9727 2.5 14.6289V1.50391ZM18.3828 4.88672C18.8711 4.39844 18.8711 3.60547 18.3828 3.11719C17.8945 2.62891 17.1016 2.62891 16.6133 3.11719L12.5 7.23438L10.2578 4.99219C9.76953 4.50391 8.97656 4.50391 8.48828 4.99219L4.11328 9.36719C3.625 9.85547 3.625 10.6484 4.11328 11.1367C4.60156 11.625 5.39453 11.625 5.88281 11.1367L9.375 7.64844L11.6172 9.89062C12.1055 10.3789 12.8984 10.3789 13.3867 9.89062L18.3867 4.89062L18.3828 4.88672Z" fill="#A19F9E"/>
</svg>
