<svg width="21" height="19" viewBox="0 0 21 19" fill="none" xmlns="http://www.w3.org/2000/svg">
<path d="M9.43233 16.3393L9.43117 16.3383C6.88261 14.1217 4.8324 12.3344 3.4101 10.6654C1.99529 9.00522 1.29367 7.56536 1.29367 6.05783C1.29367 3.61083 3.28782 1.65939 5.91319 1.65939C7.39774 1.65939 8.82685 2.32622 9.75045 3.35835L10.339 4.01605L10.9275 3.35835C11.8511 2.32622 13.2802 1.65939 14.7648 1.65939C17.3901 1.65939 19.3843 3.61083 19.3843 6.05783C19.3843 7.56536 18.6827 9.00522 17.2679 10.6654C15.8456 12.3344 13.7953 14.1217 11.2468 16.3383L11.2456 16.3393L10.339 17.1309L9.43233 16.3393Z" stroke="#1E2329" stroke-width="1.57952"/>
</svg>
