<svg width="3" height="6" viewBox="0 0 3 6" fill="none" xmlns="http://www.w3.org/2000/svg">
<path d="M1.21001 3.40208L0.729043 2.8524L1.29246 2.33022C1.42988 2.19738 1.53981 2.06912 1.62226 1.94544C1.70471 1.81719 1.74594 1.68206 1.74594 1.54006C1.74594 1.43013 1.70471 1.3408 1.62226 1.2721C1.54439 1.20339 1.40468 1.16903 1.20314 1.16903L0.32366 1.46448L-0.00614409 0.543779C0.122113 0.438425 0.307628 0.330781 0.5504 0.220846C0.797752 0.110911 1.09549 0.0559439 1.44362 0.0559439C1.97955 0.0559439 2.3689 0.168169 2.61167 0.392619C2.85445 0.617069 2.97583 0.905647 2.97583 1.25835C2.97583 1.579 2.89338 1.86528 2.72848 2.11722C2.56816 2.36457 2.38264 2.56383 2.17193 2.71499L1.21001 3.40208ZM1.21001 5.19539L0.454207 4.43958L1.21001 3.68378L1.96581 4.43958L1.21001 5.19539Z" fill="white"/>
</svg>
