<svg width="22" height="18" viewBox="0 0 22 18" fill="none" xmlns="http://www.w3.org/2000/svg">
<path d="M2.0625 4.19141C2.60951 4.19141 3.13411 3.97411 3.52091 3.58731C3.9077 3.20052 4.125 2.67592 4.125 2.12891C4.125 1.5819 3.9077 1.05729 3.52091 0.670499C3.13411 0.283705 2.60951 0.0664063 2.0625 0.0664062C1.51549 0.0664063 0.990886 0.283705 0.604092 0.670499C0.217298 1.05729 0 1.5819 0 2.12891C0 2.67592 0.217298 3.20052 0.604092 3.58731C0.990886 3.97411 1.51549 4.19141 2.0625 4.19141ZM7.5625 0.753906C6.80195 0.753906 6.1875 1.36836 6.1875 2.12891C6.1875 2.88945 6.80195 3.50391 7.5625 3.50391H19.9375C20.698 3.50391 21.3125 2.88945 21.3125 2.12891C21.3125 1.36836 20.698 0.753906 19.9375 0.753906H7.5625ZM7.5625 7.62891C6.80195 7.62891 6.1875 8.24336 6.1875 9.00391C6.1875 9.76445 6.80195 10.3789 7.5625 10.3789H19.9375C20.698 10.3789 21.3125 9.76445 21.3125 9.00391C21.3125 8.24336 20.698 7.62891 19.9375 7.62891H7.5625ZM7.5625 14.5039C6.80195 14.5039 6.1875 15.1184 6.1875 15.8789C6.1875 16.6395 6.80195 17.2539 7.5625 17.2539H19.9375C20.698 17.2539 21.3125 16.6395 21.3125 15.8789C21.3125 15.1184 20.698 14.5039 19.9375 14.5039H7.5625ZM2.0625 17.9414C2.60951 17.9414 3.13411 17.7241 3.52091 17.3373C3.9077 16.9505 4.125 16.4259 4.125 15.8789C4.125 15.3319 3.9077 14.8073 3.52091 14.4205C3.13411 14.0337 2.60951 13.8164 2.0625 13.8164C1.51549 13.8164 0.990886 14.0337 0.604092 14.4205C0.217298 14.8073 0 15.3319 0 15.8789C0 16.4259 0.217298 16.9505 0.604092 17.3373C0.990886 17.7241 1.51549 17.9414 2.0625 17.9414ZM4.125 9.00391C4.125 8.73306 4.07165 8.46486 3.968 8.21462C3.86435 7.96439 3.71243 7.73702 3.52091 7.5455C3.32939 7.35398 3.10202 7.20205 2.85178 7.0984C2.60155 6.99475 2.33335 6.94141 2.0625 6.94141C1.79165 6.94141 1.52345 6.99475 1.27322 7.0984C1.02298 7.20205 0.795613 7.35398 0.604092 7.5455C0.412571 7.73702 0.260649 7.96439 0.156998 8.21462C0.0533481 8.46486 -4.036e-09 8.73306 0 9.00391C-4.036e-09 9.27476 0.0533481 9.54296 0.156998 9.79319C0.260649 10.0434 0.412571 10.2708 0.604092 10.4623C0.795613 10.6538 1.02298 10.8058 1.27322 10.9094C1.52345 11.0131 1.79165 11.0664 2.0625 11.0664C2.33335 11.0664 2.60155 11.0131 2.85178 10.9094C3.10202 10.8058 3.32939 10.6538 3.52091 10.4623C3.71243 10.2708 3.86435 10.0434 3.968 9.79319C4.07165 9.54296 4.125 9.27476 4.125 9.00391Z" fill="#1E2329"/>
</svg>
