<svg width="16" height="17" viewBox="0 0 16 17" fill="none" xmlns="http://www.w3.org/2000/svg">
<path d="M14.7721 7.5408H8.87109V1.63976C8.87109 1.37891 8.76747 1.12876 8.58303 0.944313C8.39859 0.759869 8.14843 0.65625 7.88759 0.65625C7.62674 0.65625 7.37659 0.759869 7.19214 0.944313C7.0077 1.12876 6.90408 1.37891 6.90408 1.63976V7.5408H1.00304C0.742196 7.5408 0.492037 7.64442 0.307594 7.82886C0.123151 8.0133 0.0195313 8.26346 0.0195312 8.52431C0.0195313 8.78515 0.123151 9.03531 0.307594 9.21975C0.492037 9.40419 0.742196 9.50781 1.00304 9.50781H6.90408V15.4089C6.90408 15.6697 7.0077 15.9199 7.19214 16.1043C7.37659 16.2887 7.62674 16.3924 7.88759 16.3924C8.14843 16.3924 8.39859 16.2887 8.58303 16.1043C8.76747 15.9199 8.87109 15.6697 8.87109 15.4089V9.50781H14.7721C15.033 9.50781 15.2831 9.40419 15.4676 9.21975C15.652 9.03531 15.7556 8.78515 15.7556 8.52431C15.7556 8.26346 15.652 8.0133 15.4676 7.82886C15.2831 7.64442 15.033 7.5408 14.7721 7.5408Z" fill="#1E2329"/>
</svg>
