<svg width="17" height="21" viewBox="0 0 17 21" fill="none" xmlns="http://www.w3.org/2000/svg">
<path d="M12.0778 7.61955H13.8935C14.3751 7.61955 14.8369 7.81084 15.1774 8.15135C15.5179 8.49186 15.7092 8.9537 15.7092 9.43525V18.1506C15.7092 18.6322 15.5179 19.094 15.1774 19.4345C14.8369 19.775 14.3751 19.9663 13.8935 19.9663H2.9993C2.51774 19.9663 2.05591 19.775 1.7154 19.4345C1.37489 19.094 1.18359 18.6322 1.18359 18.1506V9.43525C1.18359 8.9537 1.37489 8.49186 1.7154 8.15135C2.05591 7.81084 2.51774 7.61955 2.9993 7.61955H4.815M12.0778 4.71442L8.44641 1.08301M8.44641 1.08301L4.815 4.71442M8.44641 1.08301V13.4752" stroke="#1E2329" stroke-width="1.45256" stroke-linecap="round" stroke-linejoin="round"/>
</svg>
