<svg width="102" height="43" viewBox="0 0 102 43" fill="none" xmlns="http://www.w3.org/2000/svg">
<rect x="0.257812" y="0.191406" width="101.486" height="42.2857" rx="4" fill="#EAECEF"/>
<g clip-path="url(#clip0_972_17893)">
<path fill-rule="evenodd" clip-rule="evenodd" d="M44.4785 14.0462C44.6539 13.6952 44.9235 13.3999 45.2572 13.1934C45.5908 12.9869 45.9753 12.8774 46.3677 12.877H55.6325C56.0252 12.877 56.4101 12.9864 56.7442 13.1929C57.0782 13.3994 57.3481 13.6949 57.5237 14.0462L61.2364 21.4726C61.4568 21.9123 61.5719 22.3973 61.5725 22.8892V28.7341C61.5725 29.2948 61.3498 29.8326 60.9533 30.2291C60.5568 30.6256 60.019 30.8484 59.4583 30.8484H42.544C41.9832 30.8484 41.4455 30.6256 41.0489 30.2291C40.6524 29.8326 40.4297 29.2948 40.4297 28.7341V22.8902C40.4299 22.3981 40.5446 21.9127 40.7648 21.4726L44.4785 14.0462ZM55.6325 14.9912H46.3687L42.6708 22.3912H46.244C46.6645 22.3912 47.0679 22.5583 47.3652 22.8557C47.6626 23.1531 47.8297 23.5564 47.8297 23.977V25.0341C47.8297 25.1743 47.8854 25.3087 47.9845 25.4079C48.0836 25.507 48.2181 25.5627 48.3583 25.5627H53.644C53.7842 25.5627 53.9186 25.507 54.0177 25.4079C54.1169 25.3087 54.1725 25.1743 54.1725 25.0341V23.977C54.1725 23.5564 54.3396 23.1531 54.637 22.8557C54.9344 22.5583 55.3377 22.3912 55.7583 22.3912H59.3314L55.6325 14.9912Z" fill="#A19F9E"/>
</g>
<defs>
<clipPath id="clip0_972_17893">
<rect width="25.3714" height="25.3714" fill="white" transform="translate(38.3145 8.64844)"/>
</clipPath>
</defs>
</svg>
