<svg width="380" height="41" viewBox="0 0 380 41" fill="none" xmlns="http://www.w3.org/2000/svg">
<rect y="0.0974121" width="380" height="40" rx="4" fill="#1E2329"/>
<g clip-path="url(#clip0_1443_1943)">
<path d="M63.7303 25.755C63.4052 26.5062 63.0203 27.1976 62.5744 27.8333C61.9666 28.6999 61.4689 29.2998 61.0854 29.6329C60.4908 30.1796 59.8538 30.4597 59.1717 30.4756C58.682 30.4756 58.0914 30.3362 57.4039 30.0536C56.7142 29.7722 56.0804 29.6329 55.5009 29.6329C54.893 29.6329 54.2411 29.7722 53.5439 30.0536C52.8456 30.3362 52.283 30.4835 51.8529 30.4981C51.1987 30.526 50.5467 30.238 49.8959 29.6329C49.4805 29.2706 48.9609 28.6495 48.3385 27.7696C47.6707 26.83 47.1217 25.7404 46.6916 24.4982C46.2309 23.1565 46 21.8573 46 20.5994C46 19.1586 46.3113 17.9159 46.935 16.8745C47.4251 16.038 48.0771 15.3781 48.8931 14.8937C49.7092 14.4093 50.5909 14.1625 51.5405 14.1467C52.06 14.1467 52.7414 14.3074 53.5881 14.6233C54.4324 14.9402 54.9745 15.1009 55.2122 15.1009C55.3899 15.1009 55.9922 14.913 57.0131 14.5383C57.9786 14.1909 58.7934 14.047 59.461 14.1037C61.2698 14.2497 62.6288 14.9627 63.5326 16.2474C61.9148 17.2276 61.1146 18.6005 61.1305 20.3617C61.1451 21.7336 61.6428 22.8752 62.6209 23.7816C63.0641 24.2023 63.5591 24.5274 64.1099 24.7583C63.9904 25.1047 63.8644 25.4365 63.7303 25.755ZM59.5817 9.43012C59.5817 10.5054 59.1889 11.5093 58.4059 12.4386C57.461 13.5433 56.3181 14.1816 55.0787 14.0809C55.0629 13.9519 55.0537 13.8161 55.0537 13.6735C55.0537 12.6412 55.5031 11.5365 56.3011 10.6333C56.6995 10.176 57.2062 9.7957 57.8207 9.49236C58.4338 9.19355 59.0137 9.0283 59.5592 9C59.5751 9.14374 59.5817 9.2875 59.5817 9.43011V9.43012Z" fill="white"/>
</g>
<path d="M111.117 24.5078C110.576 25.0495 109.93 25.474 109.18 25.7812C108.435 26.0833 107.622 26.2344 106.742 26.2344C105.862 26.2344 105.049 26.0833 104.305 25.7812C103.56 25.4792 102.911 25.0547 102.359 24.5078C101.812 23.9557 101.385 23.3099 101.078 22.5703C100.776 21.8255 100.625 21.0156 100.625 20.1406C100.625 19.2604 100.776 18.4505 101.078 17.7109C101.385 16.9661 101.812 16.3203 102.359 15.7734C102.911 15.2266 103.56 14.8021 104.305 14.5C105.049 14.1979 105.862 14.0469 106.742 14.0469C107.617 14.0469 108.427 14.2005 109.172 14.5078C109.922 14.8099 110.565 15.2292 111.102 15.7656L109.906 16.9844C109.516 16.5417 109.047 16.1953 108.5 15.9453C107.958 15.6901 107.365 15.5625 106.719 15.5625C106.094 15.5625 105.518 15.6771 104.992 15.9062C104.466 16.1302 104.008 16.4505 103.617 16.8672C103.227 17.2786 102.922 17.763 102.703 18.3203C102.49 18.8776 102.383 19.4844 102.383 20.1406C102.383 20.7969 102.49 21.4036 102.703 21.9609C102.922 22.5182 103.227 23.0052 103.617 23.4219C104.008 23.8333 104.466 24.1536 104.992 24.3828C105.518 24.6068 106.094 24.7188 106.719 24.7188C107.365 24.7188 107.958 24.5938 108.5 24.3438C109.047 24.0885 109.513 23.7396 109.898 23.2969L111.117 24.5078ZM116.391 26.1562C115.609 26.1562 114.906 25.9792 114.281 25.625C113.656 25.2708 113.164 24.7891 112.805 24.1797C112.445 23.5651 112.266 22.8698 112.266 22.0938C112.266 21.3229 112.445 20.6328 112.805 20.0234C113.164 19.4089 113.656 18.9245 114.281 18.5703C114.906 18.2109 115.609 18.0312 116.391 18.0312C117.177 18.0312 117.88 18.2109 118.5 18.5703C119.12 18.9245 119.607 19.4089 119.961 20.0234C120.32 20.6328 120.5 21.3229 120.5 22.0938C120.5 22.8698 120.32 23.5651 119.961 24.1797C119.607 24.7891 119.12 25.2708 118.5 25.625C117.88 25.9792 117.177 26.1562 116.391 26.1562ZM116.383 24.7188C116.857 24.7188 117.279 24.6042 117.648 24.375C118.023 24.1406 118.318 23.8281 118.531 23.4375C118.75 23.0417 118.859 22.5938 118.859 22.0938C118.859 21.5938 118.75 21.1484 118.531 20.7578C118.318 20.362 118.023 20.0495 117.648 19.8203C117.279 19.5859 116.857 19.4688 116.383 19.4688C115.914 19.4688 115.492 19.5859 115.117 19.8203C114.742 20.0495 114.445 20.362 114.227 20.7578C114.013 21.1484 113.906 21.5938 113.906 22.0938C113.906 22.5938 114.013 23.0417 114.227 23.4375C114.445 23.8281 114.742 24.1406 115.117 24.375C115.492 24.6042 115.914 24.7188 116.383 24.7188ZM129.648 26H128.047V21.6406C128.047 20.974 127.867 20.4479 127.508 20.0625C127.154 19.6771 126.669 19.4844 126.055 19.4844C125.617 19.4844 125.227 19.5833 124.883 19.7812C124.539 19.9792 124.268 20.2604 124.07 20.625C123.872 20.9844 123.773 21.4036 123.773 21.8828V26H122.172V18.1875H123.523L123.578 19.4453C123.865 18.987 124.255 18.638 124.75 18.3984C125.245 18.1536 125.805 18.0312 126.43 18.0312C127.419 18.0312 128.203 18.3307 128.781 18.9297C129.359 19.5286 129.648 20.3411 129.648 21.3672V26ZM136.438 25.8047C135.891 26.0391 135.362 26.1562 134.852 26.1562C134.341 26.1562 133.893 26.0469 133.508 25.8281C133.128 25.6094 132.828 25.3021 132.609 24.9062C132.396 24.5052 132.289 24.0443 132.289 23.5234V19.6172H130.922V18.1875H132.367V16.2344H133.891V18.1875H136.172V19.6172H133.891V23.2266C133.891 23.6849 134.013 24.0495 134.258 24.3203C134.508 24.5859 134.828 24.7188 135.219 24.7188C135.547 24.7188 135.872 24.6198 136.195 24.4219L136.438 25.8047ZM138.609 15.9219C138.365 15.9219 138.159 15.8359 137.992 15.6641C137.826 15.4922 137.742 15.2839 137.742 15.0391C137.742 14.7943 137.826 14.5885 137.992 14.4219C138.159 14.25 138.365 14.1641 138.609 14.1641C138.859 14.1641 139.068 14.25 139.234 14.4219C139.406 14.5885 139.492 14.7943 139.492 15.0391C139.492 15.2839 139.406 15.4922 139.234 15.6641C139.068 15.8359 138.859 15.9219 138.609 15.9219ZM139.406 26H137.805V18.1875H139.406V26ZM149.164 26H147.562V21.6406C147.562 20.974 147.383 20.4479 147.023 20.0625C146.669 19.6771 146.185 19.4844 145.57 19.4844C145.133 19.4844 144.742 19.5833 144.398 19.7812C144.055 19.9792 143.784 20.2604 143.586 20.625C143.388 20.9844 143.289 21.4036 143.289 21.8828V26H141.688V18.1875H143.039L143.094 19.4453C143.38 18.987 143.771 18.638 144.266 18.3984C144.76 18.1536 145.32 18.0312 145.945 18.0312C146.935 18.0312 147.719 18.3307 148.297 18.9297C148.875 19.5286 149.164 20.3411 149.164 21.3672V26ZM158.508 26H157.148L157.094 24.7422C156.807 25.2005 156.432 25.5521 155.969 25.7969C155.51 26.0365 154.966 26.1562 154.336 26.1562C153.315 26.1562 152.508 25.8464 151.914 25.2266C151.326 24.6016 151.031 23.7474 151.031 22.6641V18.1875H152.633V22.4297C152.633 23.1224 152.82 23.6745 153.195 24.0859C153.57 24.4974 154.076 24.7031 154.711 24.7031C155.367 24.7031 155.896 24.4844 156.297 24.0469C156.703 23.6042 156.906 23.0234 156.906 22.3047V18.1875H158.508V26ZM167.734 25.0703C166.766 25.7943 165.701 26.1562 164.539 26.1562C163.711 26.1562 162.969 25.974 162.312 25.6094C161.656 25.2448 161.138 24.7474 160.758 24.1172C160.378 23.487 160.188 22.776 160.188 21.9844C160.188 21.2292 160.362 20.5547 160.711 19.9609C161.06 19.362 161.536 18.8906 162.141 18.5469C162.745 18.2031 163.43 18.0312 164.195 18.0312C164.987 18.0312 165.682 18.2188 166.281 18.5938C166.885 18.9688 167.354 19.4922 167.688 20.1641C168.026 20.8307 168.195 21.6042 168.195 22.4844V22.7344H161.922C162.016 23.1406 162.19 23.4974 162.445 23.8047C162.706 24.1068 163.029 24.3438 163.414 24.5156C163.805 24.6823 164.242 24.7656 164.727 24.7656C165.591 24.7656 166.385 24.4844 167.109 23.9219L167.734 25.0703ZM161.852 21.625H166.703C166.651 21.1875 166.516 20.8073 166.297 20.4844C166.078 20.1562 165.794 19.901 165.445 19.7188C165.102 19.5312 164.714 19.4375 164.281 19.4375C163.844 19.4375 163.451 19.5312 163.102 19.7188C162.753 19.901 162.469 20.1562 162.25 20.4844C162.036 20.8125 161.904 21.1927 161.852 21.625ZM182.297 26H180.453L178.859 20.4141L177.266 26H175.422L172.922 18.1875H174.617L176.328 24.1719L178.133 18.1875H179.586L181.391 24.1797L183.109 18.1875H184.805L182.297 26ZM187.125 15.9219C186.88 15.9219 186.674 15.8359 186.508 15.6641C186.341 15.4922 186.258 15.2839 186.258 15.0391C186.258 14.7943 186.341 14.5885 186.508 14.4219C186.674 14.25 186.88 14.1641 187.125 14.1641C187.375 14.1641 187.583 14.25 187.75 14.4219C187.922 14.5885 188.008 14.7943 188.008 15.0391C188.008 15.2839 187.922 15.4922 187.75 15.6641C187.583 15.8359 187.375 15.9219 187.125 15.9219ZM187.922 26H186.32V18.1875H187.922V26ZM195.047 25.8047C194.5 26.0391 193.971 26.1562 193.461 26.1562C192.951 26.1562 192.503 26.0469 192.117 25.8281C191.737 25.6094 191.438 25.3021 191.219 24.9062C191.005 24.5052 190.898 24.0443 190.898 23.5234V19.6172H189.531V18.1875H190.977V16.2344H192.5V18.1875H194.781V19.6172H192.5V23.2266C192.5 23.6849 192.622 24.0495 192.867 24.3203C193.117 24.5859 193.438 24.7188 193.828 24.7188C194.156 24.7188 194.482 24.6198 194.805 24.4219L195.047 25.8047ZM196.625 26V14.2812H198.227V19.2734C198.805 18.4453 199.682 18.0312 200.859 18.0312C201.875 18.0312 202.669 18.3385 203.242 18.9531C203.815 19.5677 204.102 20.4245 204.102 21.5234V26H202.5V21.9141C202.5 21.138 202.312 20.5365 201.938 20.1094C201.568 19.6823 201.049 19.4688 200.383 19.4688C199.711 19.4688 199.182 19.6875 198.797 20.125C198.417 20.5573 198.227 21.1536 198.227 21.9141V26H196.625ZM210.992 26H209.188L213.953 14.2812H215.797L220.555 26H218.75L217.578 23.0547H212.164L210.992 26ZM212.75 21.5391H216.992L214.867 16.1875L212.75 21.5391ZM223.586 29.9062H221.984V18.1875H223.398L223.484 19.3047C223.839 18.9089 224.263 18.599 224.758 18.375C225.258 18.1458 225.805 18.0312 226.398 18.0312C227.148 18.0312 227.818 18.2083 228.406 18.5625C229 18.9167 229.466 19.401 229.805 20.0156C230.148 20.625 230.32 21.3177 230.32 22.0938C230.32 22.8646 230.148 23.5573 229.805 24.1719C229.466 24.7865 229 25.2708 228.406 25.625C227.818 25.9792 227.148 26.1562 226.398 26.1562C225.836 26.1562 225.315 26.0547 224.836 25.8516C224.357 25.6484 223.94 25.3646 223.586 25V29.9062ZM226.141 24.7031C226.635 24.7031 227.073 24.5911 227.453 24.3672C227.833 24.1432 228.13 23.8359 228.344 23.4453C228.562 23.0495 228.672 22.5964 228.672 22.0859C228.672 21.5755 228.562 21.125 228.344 20.7344C228.13 20.3385 227.833 20.0286 227.453 19.8047C227.073 19.5807 226.638 19.4688 226.148 19.4688C225.685 19.4688 225.266 19.5729 224.891 19.7812C224.521 19.9844 224.219 20.2656 223.984 20.625C223.755 20.9844 223.622 21.3932 223.586 21.8516V22.3359C223.622 22.7943 223.753 23.2031 223.977 23.5625C224.206 23.9167 224.505 24.1953 224.875 24.3984C225.25 24.6016 225.672 24.7031 226.141 24.7031ZM233.602 29.9062H232V18.1875H233.414L233.5 19.3047C233.854 18.9089 234.279 18.599 234.773 18.375C235.273 18.1458 235.82 18.0312 236.414 18.0312C237.164 18.0312 237.833 18.2083 238.422 18.5625C239.016 18.9167 239.482 19.401 239.82 20.0156C240.164 20.625 240.336 21.3177 240.336 22.0938C240.336 22.8646 240.164 23.5573 239.82 24.1719C239.482 24.7865 239.016 25.2708 238.422 25.625C237.833 25.9792 237.164 26.1562 236.414 26.1562C235.852 26.1562 235.331 26.0547 234.852 25.8516C234.372 25.6484 233.956 25.3646 233.602 25V29.9062ZM236.156 24.7031C236.651 24.7031 237.089 24.5911 237.469 24.3672C237.849 24.1432 238.146 23.8359 238.359 23.4453C238.578 23.0495 238.688 22.5964 238.688 22.0859C238.688 21.5755 238.578 21.125 238.359 20.7344C238.146 20.3385 237.849 20.0286 237.469 19.8047C237.089 19.5807 236.654 19.4688 236.164 19.4688C235.701 19.4688 235.281 19.5729 234.906 19.7812C234.536 19.9844 234.234 20.2656 234 20.625C233.771 20.9844 233.638 21.3932 233.602 21.8516V22.3359C233.638 22.7943 233.768 23.2031 233.992 23.5625C234.221 23.9167 234.521 24.1953 234.891 24.3984C235.266 24.6016 235.688 24.7031 236.156 24.7031ZM243.719 26H242.016V14.2812H243.719V26ZM252.938 25.0703C251.969 25.7943 250.904 26.1562 249.742 26.1562C248.914 26.1562 248.172 25.974 247.516 25.6094C246.859 25.2448 246.341 24.7474 245.961 24.1172C245.581 23.487 245.391 22.776 245.391 21.9844C245.391 21.2292 245.565 20.5547 245.914 19.9609C246.263 19.362 246.74 18.8906 247.344 18.5469C247.948 18.2031 248.633 18.0312 249.398 18.0312C250.19 18.0312 250.885 18.2188 251.484 18.5938C252.089 18.9688 252.557 19.4922 252.891 20.1641C253.229 20.8307 253.398 21.6042 253.398 22.4844V22.7344H247.125C247.219 23.1406 247.393 23.4974 247.648 23.8047C247.909 24.1068 248.232 24.3438 248.617 24.5156C249.008 24.6823 249.445 24.7656 249.93 24.7656C250.794 24.7656 251.589 24.4844 252.312 23.9219L252.938 25.0703ZM247.055 21.625H251.906C251.854 21.1875 251.719 20.8073 251.5 20.4844C251.281 20.1562 250.997 19.901 250.648 19.7188C250.305 19.5312 249.917 19.4375 249.484 19.4375C249.047 19.4375 248.654 19.5312 248.305 19.7188C247.956 19.901 247.672 20.1562 247.453 20.4844C247.24 20.8125 247.107 21.1927 247.055 21.625Z" fill="white"/>
<defs>
<clipPath id="clip0_1443_1943">
<rect width="24" height="24" fill="white" transform="translate(40 8)"/>
</clipPath>
</defs>
</svg>
