<svg width="22" height="22" viewBox="0 0 22 22" fill="none" xmlns="http://www.w3.org/2000/svg">
<path d="M11 16.5C11.3117 16.5 11.5731 16.3944 11.7843 16.1832C11.9955 15.972 12.1007 15.7109 12.1 15.4C12.0993 15.0891 11.9937 14.828 11.7832 14.6168C11.5727 14.4056 11.3117 14.3 11 14.3C10.6883 14.3 10.4273 14.4056 10.2168 14.6168C10.0063 14.828 9.90073 15.0891 9.9 15.4C9.89927 15.7109 10.0049 15.9724 10.2168 16.1843C10.4287 16.3962 10.6898 16.5015 11 16.5ZM9.9 12.1H12.1V5.5H9.9V12.1ZM11 22C9.47833 22 8.04833 21.7111 6.71 21.1332C5.37167 20.5553 4.2075 19.7718 3.2175 18.7825C2.2275 17.7932 1.44393 16.6291 0.866801 15.29C0.289668 13.9509 0.000734726 12.5209 1.3924e-06 11C-0.000731941 9.47906 0.288201 8.04906 0.866801 6.71C1.4454 5.37093 2.22897 4.20677 3.2175 3.2175C4.20603 2.22823 5.3702 1.44467 6.71 0.8668C8.0498 0.288933 9.4798 0 11 0C12.5202 0 13.9502 0.288933 15.29 0.8668C16.6298 1.44467 17.794 2.22823 18.7825 3.2175C19.771 4.20677 20.555 5.37093 21.1343 6.71C21.7136 8.04906 22.0022 9.47906 22 11C21.9978 12.5209 21.7089 13.9509 21.1332 15.29C20.5575 16.6291 19.774 17.7932 18.7825 18.7825C17.791 19.7718 16.6269 20.5557 15.29 21.1343C13.9531 21.7129 12.5231 22.0015 11 22Z" fill="#E2464A"/>
</svg>
