<svg width="18" height="5" viewBox="0 0 18 5" fill="none" xmlns="http://www.w3.org/2000/svg">
<path d="M1 2.40039C1 2.66561 1.10536 2.91996 1.29289 3.1075C1.48043 3.29503 1.73478 3.40039 2 3.40039C2.26522 3.40039 2.51957 3.29503 2.70711 3.1075C2.89464 2.91996 3 2.66561 3 2.40039C3 2.13517 2.89464 1.88082 2.70711 1.69328C2.51957 1.50575 2.26522 1.40039 2 1.40039C1.73478 1.40039 1.48043 1.50575 1.29289 1.69328C1.10536 1.88082 1 2.13517 1 2.40039ZM8 2.40039C8 2.66561 8.10536 2.91996 8.29289 3.1075C8.48043 3.29503 8.73478 3.40039 9 3.40039C9.26522 3.40039 9.51957 3.29503 9.70711 3.1075C9.89464 2.91996 10 2.66561 10 2.40039C10 2.13517 9.89464 1.88082 9.70711 1.69328C9.51957 1.50575 9.26522 1.40039 9 1.40039C8.73478 1.40039 8.48043 1.50575 8.29289 1.69328C8.10536 1.88082 8 2.13517 8 2.40039ZM15 2.40039C15 2.66561 15.1054 2.91996 15.2929 3.1075C15.4804 3.29503 15.7348 3.40039 16 3.40039C16.2652 3.40039 16.5196 3.29503 16.7071 3.1075C16.8946 2.91996 17 2.66561 17 2.40039C17 2.13517 16.8946 1.88082 16.7071 1.69328C16.5196 1.50575 16.2652 1.40039 16 1.40039C15.7348 1.40039 15.4804 1.50575 15.2929 1.69328C15.1054 1.88082 15 2.13517 15 2.40039Z" stroke="#252C32" stroke-width="2" stroke-linecap="round" stroke-linejoin="round"/>
</svg>
