<svg width="380" height="41" viewBox="0 0 380 41" fill="none" xmlns="http://www.w3.org/2000/svg">
<rect y="0.0974121" width="380" height="40" rx="4" fill="#1877F2"/>
<rect width="24" height="24" transform="translate(40 8)" fill="#1877F2"/>
<path d="M63.5611 19.7806C63.5611 13.8266 58.7345 9 52.7806 9C46.8266 9 42 13.8266 42 19.7806C42 25.1615 45.9423 29.6214 51.0961 30.4302V22.8968H48.3589V19.7806H51.0961V17.4055C51.0961 14.7036 52.7056 13.2112 55.1681 13.2112C56.3476 13.2112 57.5813 13.4217 57.5813 13.4217V16.0747H56.2219C54.8827 16.0747 54.465 16.9058 54.465 17.7583V19.7806H57.455L56.977 22.8968H54.465V30.4302C59.6188 29.6214 63.5611 25.1615 63.5611 19.7806Z" fill="white"/>
<path d="M111.117 24.5078C110.576 25.0495 109.93 25.474 109.18 25.7812C108.435 26.0833 107.622 26.2344 106.742 26.2344C105.862 26.2344 105.049 26.0833 104.305 25.7812C103.56 25.4792 102.911 25.0547 102.359 24.5078C101.812 23.9557 101.385 23.3099 101.078 22.5703C100.776 21.8255 100.625 21.0156 100.625 20.1406C100.625 19.2604 100.776 18.4505 101.078 17.7109C101.385 16.9661 101.812 16.3203 102.359 15.7734C102.911 15.2266 103.56 14.8021 104.305 14.5C105.049 14.1979 105.862 14.0469 106.742 14.0469C107.617 14.0469 108.427 14.2005 109.172 14.5078C109.922 14.8099 110.565 15.2292 111.102 15.7656L109.906 16.9844C109.516 16.5417 109.047 16.1953 108.5 15.9453C107.958 15.6901 107.365 15.5625 106.719 15.5625C106.094 15.5625 105.518 15.6771 104.992 15.9062C104.466 16.1302 104.008 16.4505 103.617 16.8672C103.227 17.2786 102.922 17.763 102.703 18.3203C102.49 18.8776 102.383 19.4844 102.383 20.1406C102.383 20.7969 102.49 21.4036 102.703 21.9609C102.922 22.5182 103.227 23.0052 103.617 23.4219C104.008 23.8333 104.466 24.1536 104.992 24.3828C105.518 24.6068 106.094 24.7188 106.719 24.7188C107.365 24.7188 107.958 24.5938 108.5 24.3438C109.047 24.0885 109.513 23.7396 109.898 23.2969L111.117 24.5078ZM116.391 26.1562C115.609 26.1562 114.906 25.9792 114.281 25.625C113.656 25.2708 113.164 24.7891 112.805 24.1797C112.445 23.5651 112.266 22.8698 112.266 22.0938C112.266 21.3229 112.445 20.6328 112.805 20.0234C113.164 19.4089 113.656 18.9245 114.281 18.5703C114.906 18.2109 115.609 18.0312 116.391 18.0312C117.177 18.0312 117.88 18.2109 118.5 18.5703C119.12 18.9245 119.607 19.4089 119.961 20.0234C120.32 20.6328 120.5 21.3229 120.5 22.0938C120.5 22.8698 120.32 23.5651 119.961 24.1797C119.607 24.7891 119.12 25.2708 118.5 25.625C117.88 25.9792 117.177 26.1562 116.391 26.1562ZM116.383 24.7188C116.857 24.7188 117.279 24.6042 117.648 24.375C118.023 24.1406 118.318 23.8281 118.531 23.4375C118.75 23.0417 118.859 22.5938 118.859 22.0938C118.859 21.5938 118.75 21.1484 118.531 20.7578C118.318 20.362 118.023 20.0495 117.648 19.8203C117.279 19.5859 116.857 19.4688 116.383 19.4688C115.914 19.4688 115.492 19.5859 115.117 19.8203C114.742 20.0495 114.445 20.362 114.227 20.7578C114.013 21.1484 113.906 21.5938 113.906 22.0938C113.906 22.5938 114.013 23.0417 114.227 23.4375C114.445 23.8281 114.742 24.1406 115.117 24.375C115.492 24.6042 115.914 24.7188 116.383 24.7188ZM129.648 26H128.047V21.6406C128.047 20.974 127.867 20.4479 127.508 20.0625C127.154 19.6771 126.669 19.4844 126.055 19.4844C125.617 19.4844 125.227 19.5833 124.883 19.7812C124.539 19.9792 124.268 20.2604 124.07 20.625C123.872 20.9844 123.773 21.4036 123.773 21.8828V26H122.172V18.1875H123.523L123.578 19.4453C123.865 18.987 124.255 18.638 124.75 18.3984C125.245 18.1536 125.805 18.0312 126.43 18.0312C127.419 18.0312 128.203 18.3307 128.781 18.9297C129.359 19.5286 129.648 20.3411 129.648 21.3672V26ZM136.438 25.8047C135.891 26.0391 135.362 26.1562 134.852 26.1562C134.341 26.1562 133.893 26.0469 133.508 25.8281C133.128 25.6094 132.828 25.3021 132.609 24.9062C132.396 24.5052 132.289 24.0443 132.289 23.5234V19.6172H130.922V18.1875H132.367V16.2344H133.891V18.1875H136.172V19.6172H133.891V23.2266C133.891 23.6849 134.013 24.0495 134.258 24.3203C134.508 24.5859 134.828 24.7188 135.219 24.7188C135.547 24.7188 135.872 24.6198 136.195 24.4219L136.438 25.8047ZM138.609 15.9219C138.365 15.9219 138.159 15.8359 137.992 15.6641C137.826 15.4922 137.742 15.2839 137.742 15.0391C137.742 14.7943 137.826 14.5885 137.992 14.4219C138.159 14.25 138.365 14.1641 138.609 14.1641C138.859 14.1641 139.068 14.25 139.234 14.4219C139.406 14.5885 139.492 14.7943 139.492 15.0391C139.492 15.2839 139.406 15.4922 139.234 15.6641C139.068 15.8359 138.859 15.9219 138.609 15.9219ZM139.406 26H137.805V18.1875H139.406V26ZM149.164 26H147.562V21.6406C147.562 20.974 147.383 20.4479 147.023 20.0625C146.669 19.6771 146.185 19.4844 145.57 19.4844C145.133 19.4844 144.742 19.5833 144.398 19.7812C144.055 19.9792 143.784 20.2604 143.586 20.625C143.388 20.9844 143.289 21.4036 143.289 21.8828V26H141.688V18.1875H143.039L143.094 19.4453C143.38 18.987 143.771 18.638 144.266 18.3984C144.76 18.1536 145.32 18.0312 145.945 18.0312C146.935 18.0312 147.719 18.3307 148.297 18.9297C148.875 19.5286 149.164 20.3411 149.164 21.3672V26ZM158.508 26H157.148L157.094 24.7422C156.807 25.2005 156.432 25.5521 155.969 25.7969C155.51 26.0365 154.966 26.1562 154.336 26.1562C153.315 26.1562 152.508 25.8464 151.914 25.2266C151.326 24.6016 151.031 23.7474 151.031 22.6641V18.1875H152.633V22.4297C152.633 23.1224 152.82 23.6745 153.195 24.0859C153.57 24.4974 154.076 24.7031 154.711 24.7031C155.367 24.7031 155.896 24.4844 156.297 24.0469C156.703 23.6042 156.906 23.0234 156.906 22.3047V18.1875H158.508V26ZM167.734 25.0703C166.766 25.7943 165.701 26.1562 164.539 26.1562C163.711 26.1562 162.969 25.974 162.312 25.6094C161.656 25.2448 161.138 24.7474 160.758 24.1172C160.378 23.487 160.188 22.776 160.188 21.9844C160.188 21.2292 160.362 20.5547 160.711 19.9609C161.06 19.362 161.536 18.8906 162.141 18.5469C162.745 18.2031 163.43 18.0312 164.195 18.0312C164.987 18.0312 165.682 18.2188 166.281 18.5938C166.885 18.9688 167.354 19.4922 167.688 20.1641C168.026 20.8307 168.195 21.6042 168.195 22.4844V22.7344H161.922C162.016 23.1406 162.19 23.4974 162.445 23.8047C162.706 24.1068 163.029 24.3438 163.414 24.5156C163.805 24.6823 164.242 24.7656 164.727 24.7656C165.591 24.7656 166.385 24.4844 167.109 23.9219L167.734 25.0703ZM161.852 21.625H166.703C166.651 21.1875 166.516 20.8073 166.297 20.4844C166.078 20.1562 165.794 19.901 165.445 19.7188C165.102 19.5312 164.714 19.4375 164.281 19.4375C163.844 19.4375 163.451 19.5312 163.102 19.7188C162.753 19.901 162.469 20.1562 162.25 20.4844C162.036 20.8125 161.904 21.1927 161.852 21.625ZM182.297 26H180.453L178.859 20.4141L177.266 26H175.422L172.922 18.1875H174.617L176.328 24.1719L178.133 18.1875H179.586L181.391 24.1797L183.109 18.1875H184.805L182.297 26ZM187.125 15.9219C186.88 15.9219 186.674 15.8359 186.508 15.6641C186.341 15.4922 186.258 15.2839 186.258 15.0391C186.258 14.7943 186.341 14.5885 186.508 14.4219C186.674 14.25 186.88 14.1641 187.125 14.1641C187.375 14.1641 187.583 14.25 187.75 14.4219C187.922 14.5885 188.008 14.7943 188.008 15.0391C188.008 15.2839 187.922 15.4922 187.75 15.6641C187.583 15.8359 187.375 15.9219 187.125 15.9219ZM187.922 26H186.32V18.1875H187.922V26ZM195.047 25.8047C194.5 26.0391 193.971 26.1562 193.461 26.1562C192.951 26.1562 192.503 26.0469 192.117 25.8281C191.737 25.6094 191.438 25.3021 191.219 24.9062C191.005 24.5052 190.898 24.0443 190.898 23.5234V19.6172H189.531V18.1875H190.977V16.2344H192.5V18.1875H194.781V19.6172H192.5V23.2266C192.5 23.6849 192.622 24.0495 192.867 24.3203C193.117 24.5859 193.438 24.7188 193.828 24.7188C194.156 24.7188 194.482 24.6198 194.805 24.4219L195.047 25.8047ZM196.625 26V14.2812H198.227V19.2734C198.805 18.4453 199.682 18.0312 200.859 18.0312C201.875 18.0312 202.669 18.3385 203.242 18.9531C203.815 19.5677 204.102 20.4245 204.102 21.5234V26H202.5V21.9141C202.5 21.138 202.312 20.5365 201.938 20.1094C201.568 19.6823 201.049 19.4688 200.383 19.4688C199.711 19.4688 199.182 19.6875 198.797 20.125C198.417 20.5573 198.227 21.1536 198.227 21.9141V26H196.625ZM210.016 26V14.2812H217.164V15.7969H211.734V19.3047H216.844V20.8203H211.734V26H210.016ZM225.32 26H223.938L223.844 25C223.557 25.3646 223.195 25.6484 222.758 25.8516C222.32 26.0547 221.836 26.1562 221.305 26.1562C220.747 26.1562 220.25 26.0469 219.812 25.8281C219.375 25.6094 219.031 25.3099 218.781 24.9297C218.531 24.5495 218.406 24.1172 218.406 23.6328C218.406 23.1224 218.542 22.6745 218.812 22.2891C219.083 21.8984 219.453 21.5938 219.922 21.375C220.391 21.151 220.924 21.0391 221.523 21.0391C221.898 21.0391 222.279 21.0833 222.664 21.1719C223.055 21.2604 223.406 21.3854 223.719 21.5469V21.2578C223.719 20.8776 223.62 20.5521 223.422 20.2812C223.229 20.0052 222.964 19.7943 222.625 19.6484C222.292 19.5026 221.922 19.4297 221.516 19.4297C221.156 19.4297 220.789 19.4922 220.414 19.6172C220.044 19.7422 219.695 19.9349 219.367 20.1953L218.883 18.8906C219.357 18.6094 219.849 18.3958 220.359 18.25C220.875 18.1042 221.38 18.0312 221.875 18.0312C222.583 18.0312 223.193 18.1719 223.703 18.4531C224.219 18.7344 224.617 19.1354 224.898 19.6562C225.18 20.1719 225.32 20.7812 225.32 21.4844V26ZM221.617 24.7969C221.987 24.7969 222.328 24.7214 222.641 24.5703C222.953 24.4141 223.206 24.1953 223.398 23.9141C223.596 23.6276 223.703 23.2943 223.719 22.9141V22.8047C223.453 22.6068 223.154 22.4531 222.82 22.3438C222.492 22.2292 222.156 22.1719 221.812 22.1719C221.286 22.1719 220.849 22.2969 220.5 22.5469C220.151 22.7969 219.977 23.1172 219.977 23.5078C219.977 23.7526 220.047 23.974 220.188 24.1719C220.333 24.3646 220.529 24.5182 220.773 24.6328C221.023 24.7422 221.305 24.7969 221.617 24.7969ZM234.055 24.8359C233.674 25.2578 233.219 25.5833 232.688 25.8125C232.156 26.0417 231.581 26.1562 230.961 26.1562C230.18 26.1562 229.477 25.9792 228.852 25.625C228.232 25.2708 227.742 24.7865 227.383 24.1719C227.023 23.5573 226.844 22.8646 226.844 22.0938C226.844 21.3177 227.023 20.625 227.383 20.0156C227.742 19.401 228.232 18.9167 228.852 18.5625C229.477 18.2083 230.18 18.0312 230.961 18.0312C231.576 18.0312 232.148 18.1458 232.68 18.375C233.211 18.599 233.667 18.9219 234.047 19.3438L233.102 20.3359C232.846 20.0651 232.539 19.8568 232.18 19.7109C231.826 19.5599 231.448 19.4844 231.047 19.4844C230.552 19.4844 230.112 19.5964 229.727 19.8203C229.341 20.0443 229.039 20.3516 228.82 20.7422C228.602 21.1276 228.492 21.5755 228.492 22.0859C228.492 22.5911 228.602 23.0417 228.82 23.4375C229.039 23.8333 229.341 24.1432 229.727 24.3672C230.112 24.5911 230.552 24.7031 231.047 24.7031C231.448 24.7031 231.828 24.6276 232.188 24.4766C232.547 24.3255 232.852 24.1172 233.102 23.8516L234.055 24.8359ZM242.688 25.0703C241.719 25.7943 240.654 26.1562 239.492 26.1562C238.664 26.1562 237.922 25.974 237.266 25.6094C236.609 25.2448 236.091 24.7474 235.711 24.1172C235.331 23.487 235.141 22.776 235.141 21.9844C235.141 21.2292 235.315 20.5547 235.664 19.9609C236.013 19.362 236.49 18.8906 237.094 18.5469C237.698 18.2031 238.383 18.0312 239.148 18.0312C239.94 18.0312 240.635 18.2188 241.234 18.5938C241.839 18.9688 242.307 19.4922 242.641 20.1641C242.979 20.8307 243.148 21.6042 243.148 22.4844V22.7344H236.875C236.969 23.1406 237.143 23.4974 237.398 23.8047C237.659 24.1068 237.982 24.3438 238.367 24.5156C238.758 24.6823 239.195 24.7656 239.68 24.7656C240.544 24.7656 241.339 24.4844 242.062 23.9219L242.688 25.0703ZM236.805 21.625H241.656C241.604 21.1875 241.469 20.8073 241.25 20.4844C241.031 20.1562 240.747 19.901 240.398 19.7188C240.055 19.5312 239.667 19.4375 239.234 19.4375C238.797 19.4375 238.404 19.5312 238.055 19.7188C237.706 19.901 237.422 20.1562 237.203 20.4844C236.99 20.8125 236.857 21.1927 236.805 21.625ZM246.242 26H244.828V14.2812H246.43V19.1875C246.784 18.8229 247.198 18.5391 247.672 18.3359C248.151 18.1328 248.672 18.0312 249.234 18.0312C249.99 18.0312 250.661 18.2083 251.25 18.5625C251.839 18.9167 252.302 19.401 252.641 20.0156C252.984 20.625 253.156 21.3177 253.156 22.0938C253.156 22.8646 252.984 23.5573 252.641 24.1719C252.302 24.7865 251.839 25.2708 251.25 25.625C250.661 25.9792 249.99 26.1562 249.234 26.1562C248.641 26.1562 248.094 26.0443 247.594 25.8203C247.099 25.5911 246.674 25.2786 246.32 24.8828L246.242 26ZM248.977 24.7188C249.461 24.7188 249.893 24.6042 250.273 24.375C250.659 24.1458 250.961 23.8333 251.18 23.4375C251.404 23.0417 251.516 22.5938 251.516 22.0938C251.516 21.5938 251.404 21.1458 251.18 20.75C250.961 20.3542 250.659 20.0417 250.273 19.8125C249.893 19.5833 249.461 19.4688 248.977 19.4688C248.513 19.4688 248.094 19.5729 247.719 19.7812C247.349 19.9896 247.049 20.276 246.82 20.6406C246.591 21.0052 246.461 21.4219 246.43 21.8906V22.2891C246.461 22.7526 246.589 23.1693 246.812 23.5391C247.042 23.9036 247.341 24.1927 247.711 24.4062C248.086 24.6146 248.508 24.7188 248.977 24.7188ZM258.375 26.1562C257.594 26.1562 256.891 25.9792 256.266 25.625C255.641 25.2708 255.148 24.7891 254.789 24.1797C254.43 23.5651 254.25 22.8698 254.25 22.0938C254.25 21.3229 254.43 20.6328 254.789 20.0234C255.148 19.4089 255.641 18.9245 256.266 18.5703C256.891 18.2109 257.594 18.0312 258.375 18.0312C259.161 18.0312 259.865 18.2109 260.484 18.5703C261.104 18.9245 261.591 19.4089 261.945 20.0234C262.305 20.6328 262.484 21.3229 262.484 22.0938C262.484 22.8698 262.305 23.5651 261.945 24.1797C261.591 24.7891 261.104 25.2708 260.484 25.625C259.865 25.9792 259.161 26.1562 258.375 26.1562ZM258.367 24.7188C258.841 24.7188 259.263 24.6042 259.633 24.375C260.008 24.1406 260.302 23.8281 260.516 23.4375C260.734 23.0417 260.844 22.5938 260.844 22.0938C260.844 21.5938 260.734 21.1484 260.516 20.7578C260.302 20.362 260.008 20.0495 259.633 19.8203C259.263 19.5859 258.841 19.4688 258.367 19.4688C257.898 19.4688 257.477 19.5859 257.102 19.8203C256.727 20.0495 256.43 20.362 256.211 20.7578C255.997 21.1484 255.891 21.5938 255.891 22.0938C255.891 22.5938 255.997 23.0417 256.211 23.4375C256.43 23.8281 256.727 24.1406 257.102 24.375C257.477 24.6042 257.898 24.7188 258.367 24.7188ZM267.703 26.1562C266.922 26.1562 266.219 25.9792 265.594 25.625C264.969 25.2708 264.477 24.7891 264.117 24.1797C263.758 23.5651 263.578 22.8698 263.578 22.0938C263.578 21.3229 263.758 20.6328 264.117 20.0234C264.477 19.4089 264.969 18.9245 265.594 18.5703C266.219 18.2109 266.922 18.0312 267.703 18.0312C268.49 18.0312 269.193 18.2109 269.812 18.5703C270.432 18.9245 270.919 19.4089 271.273 20.0234C271.633 20.6328 271.812 21.3229 271.812 22.0938C271.812 22.8698 271.633 23.5651 271.273 24.1797C270.919 24.7891 270.432 25.2708 269.812 25.625C269.193 25.9792 268.49 26.1562 267.703 26.1562ZM267.695 24.7188C268.169 24.7188 268.591 24.6042 268.961 24.375C269.336 24.1406 269.63 23.8281 269.844 23.4375C270.062 23.0417 270.172 22.5938 270.172 22.0938C270.172 21.5938 270.062 21.1484 269.844 20.7578C269.63 20.362 269.336 20.0495 268.961 19.8203C268.591 19.5859 268.169 19.4688 267.695 19.4688C267.227 19.4688 266.805 19.5859 266.43 19.8203C266.055 20.0495 265.758 20.362 265.539 20.7578C265.326 21.1484 265.219 21.5938 265.219 22.0938C265.219 22.5938 265.326 23.0417 265.539 23.4375C265.758 23.8281 266.055 24.1406 266.43 24.375C266.805 24.6042 267.227 24.7188 267.695 24.7188ZM275.086 26H273.484V14.2812H275.086V22.1797L275.75 21.3828L278.766 18.1875H280.773L277.547 21.6094L281.227 26H279.156L276.438 22.7031L275.086 24.0938V26Z" fill="white"/>
</svg>
