<svg width="380" height="41" viewBox="0 0 380 41" fill="none" xmlns="http://www.w3.org/2000/svg">
<rect x="0.5" y="0.597412" width="379" height="39" rx="3.5" fill="white"/>
<rect x="0.5" y="0.597412" width="379" height="39" rx="3.5" stroke="#1E2329"/>
<path fill-rule="evenodd" clip-rule="evenodd" d="M62.118 20.2396C62.118 19.4921 62.051 18.7734 61.9264 18.0834H51.998V22.1611H57.6714C57.427 23.4788 56.6843 24.5952 55.5678 25.3427V27.9877H58.9747C60.968 26.1525 62.118 23.45 62.118 20.2396Z" fill="#4285F4"/>
<path fill-rule="evenodd" clip-rule="evenodd" d="M51.9985 30.5416C54.8448 30.5416 57.231 29.5976 58.9752 27.9876L55.5683 25.3426C54.6244 25.9751 53.4169 26.3488 51.9985 26.3488C49.2529 26.3488 46.929 24.4945 46.1 22.0028H42.5781V24.7341C44.3127 28.1793 47.8777 30.5416 51.9985 30.5416Z" fill="#34A853"/>
<path fill-rule="evenodd" clip-rule="evenodd" d="M46.1002 22.003C45.8893 21.3705 45.7695 20.6949 45.7695 20.0001C45.7695 19.3053 45.8893 18.6297 46.1002 17.9972V15.2659H42.5783C41.8643 16.6891 41.457 18.2991 41.457 20.0001C41.457 21.7011 41.8643 23.3111 42.5783 24.7343L46.1002 22.003Z" fill="#FBBC05"/>
<path fill-rule="evenodd" clip-rule="evenodd" d="M51.9985 13.6511C53.5463 13.6511 54.9358 14.183 56.0283 15.2275L59.0519 12.204C57.2263 10.503 54.84 9.45837 51.9985 9.45837C47.8777 9.45837 44.3127 11.8207 42.5781 15.2659L46.1 17.9971C46.929 15.5055 49.2529 13.6511 51.9985 13.6511Z" fill="#EA4335"/>
<path d="M111.117 24.5078C110.576 25.0495 109.93 25.474 109.18 25.7812C108.435 26.0833 107.622 26.2344 106.742 26.2344C105.862 26.2344 105.049 26.0833 104.305 25.7812C103.56 25.4792 102.911 25.0547 102.359 24.5078C101.812 23.9557 101.385 23.3099 101.078 22.5703C100.776 21.8255 100.625 21.0156 100.625 20.1406C100.625 19.2604 100.776 18.4505 101.078 17.7109C101.385 16.9661 101.812 16.3203 102.359 15.7734C102.911 15.2266 103.56 14.8021 104.305 14.5C105.049 14.1979 105.862 14.0469 106.742 14.0469C107.617 14.0469 108.427 14.2005 109.172 14.5078C109.922 14.8099 110.565 15.2292 111.102 15.7656L109.906 16.9844C109.516 16.5417 109.047 16.1953 108.5 15.9453C107.958 15.6901 107.365 15.5625 106.719 15.5625C106.094 15.5625 105.518 15.6771 104.992 15.9062C104.466 16.1302 104.008 16.4505 103.617 16.8672C103.227 17.2786 102.922 17.763 102.703 18.3203C102.49 18.8776 102.383 19.4844 102.383 20.1406C102.383 20.7969 102.49 21.4036 102.703 21.9609C102.922 22.5182 103.227 23.0052 103.617 23.4219C104.008 23.8333 104.466 24.1536 104.992 24.3828C105.518 24.6068 106.094 24.7188 106.719 24.7188C107.365 24.7188 107.958 24.5938 108.5 24.3438C109.047 24.0885 109.513 23.7396 109.898 23.2969L111.117 24.5078ZM116.391 26.1562C115.609 26.1562 114.906 25.9792 114.281 25.625C113.656 25.2708 113.164 24.7891 112.805 24.1797C112.445 23.5651 112.266 22.8698 112.266 22.0938C112.266 21.3229 112.445 20.6328 112.805 20.0234C113.164 19.4089 113.656 18.9245 114.281 18.5703C114.906 18.2109 115.609 18.0312 116.391 18.0312C117.177 18.0312 117.88 18.2109 118.5 18.5703C119.12 18.9245 119.607 19.4089 119.961 20.0234C120.32 20.6328 120.5 21.3229 120.5 22.0938C120.5 22.8698 120.32 23.5651 119.961 24.1797C119.607 24.7891 119.12 25.2708 118.5 25.625C117.88 25.9792 117.177 26.1562 116.391 26.1562ZM116.383 24.7188C116.857 24.7188 117.279 24.6042 117.648 24.375C118.023 24.1406 118.318 23.8281 118.531 23.4375C118.75 23.0417 118.859 22.5938 118.859 22.0938C118.859 21.5938 118.75 21.1484 118.531 20.7578C118.318 20.362 118.023 20.0495 117.648 19.8203C117.279 19.5859 116.857 19.4688 116.383 19.4688C115.914 19.4688 115.492 19.5859 115.117 19.8203C114.742 20.0495 114.445 20.362 114.227 20.7578C114.013 21.1484 113.906 21.5938 113.906 22.0938C113.906 22.5938 114.013 23.0417 114.227 23.4375C114.445 23.8281 114.742 24.1406 115.117 24.375C115.492 24.6042 115.914 24.7188 116.383 24.7188ZM129.648 26H128.047V21.6406C128.047 20.974 127.867 20.4479 127.508 20.0625C127.154 19.6771 126.669 19.4844 126.055 19.4844C125.617 19.4844 125.227 19.5833 124.883 19.7812C124.539 19.9792 124.268 20.2604 124.07 20.625C123.872 20.9844 123.773 21.4036 123.773 21.8828V26H122.172V18.1875H123.523L123.578 19.4453C123.865 18.987 124.255 18.638 124.75 18.3984C125.245 18.1536 125.805 18.0312 126.43 18.0312C127.419 18.0312 128.203 18.3307 128.781 18.9297C129.359 19.5286 129.648 20.3411 129.648 21.3672V26ZM136.438 25.8047C135.891 26.0391 135.362 26.1562 134.852 26.1562C134.341 26.1562 133.893 26.0469 133.508 25.8281C133.128 25.6094 132.828 25.3021 132.609 24.9062C132.396 24.5052 132.289 24.0443 132.289 23.5234V19.6172H130.922V18.1875H132.367V16.2344H133.891V18.1875H136.172V19.6172H133.891V23.2266C133.891 23.6849 134.013 24.0495 134.258 24.3203C134.508 24.5859 134.828 24.7188 135.219 24.7188C135.547 24.7188 135.872 24.6198 136.195 24.4219L136.438 25.8047ZM138.609 15.9219C138.365 15.9219 138.159 15.8359 137.992 15.6641C137.826 15.4922 137.742 15.2839 137.742 15.0391C137.742 14.7943 137.826 14.5885 137.992 14.4219C138.159 14.25 138.365 14.1641 138.609 14.1641C138.859 14.1641 139.068 14.25 139.234 14.4219C139.406 14.5885 139.492 14.7943 139.492 15.0391C139.492 15.2839 139.406 15.4922 139.234 15.6641C139.068 15.8359 138.859 15.9219 138.609 15.9219ZM139.406 26H137.805V18.1875H139.406V26ZM149.164 26H147.562V21.6406C147.562 20.974 147.383 20.4479 147.023 20.0625C146.669 19.6771 146.185 19.4844 145.57 19.4844C145.133 19.4844 144.742 19.5833 144.398 19.7812C144.055 19.9792 143.784 20.2604 143.586 20.625C143.388 20.9844 143.289 21.4036 143.289 21.8828V26H141.688V18.1875H143.039L143.094 19.4453C143.38 18.987 143.771 18.638 144.266 18.3984C144.76 18.1536 145.32 18.0312 145.945 18.0312C146.935 18.0312 147.719 18.3307 148.297 18.9297C148.875 19.5286 149.164 20.3411 149.164 21.3672V26ZM158.508 26H157.148L157.094 24.7422C156.807 25.2005 156.432 25.5521 155.969 25.7969C155.51 26.0365 154.966 26.1562 154.336 26.1562C153.315 26.1562 152.508 25.8464 151.914 25.2266C151.326 24.6016 151.031 23.7474 151.031 22.6641V18.1875H152.633V22.4297C152.633 23.1224 152.82 23.6745 153.195 24.0859C153.57 24.4974 154.076 24.7031 154.711 24.7031C155.367 24.7031 155.896 24.4844 156.297 24.0469C156.703 23.6042 156.906 23.0234 156.906 22.3047V18.1875H158.508V26ZM167.734 25.0703C166.766 25.7943 165.701 26.1562 164.539 26.1562C163.711 26.1562 162.969 25.974 162.312 25.6094C161.656 25.2448 161.138 24.7474 160.758 24.1172C160.378 23.487 160.188 22.776 160.188 21.9844C160.188 21.2292 160.362 20.5547 160.711 19.9609C161.06 19.362 161.536 18.8906 162.141 18.5469C162.745 18.2031 163.43 18.0312 164.195 18.0312C164.987 18.0312 165.682 18.2188 166.281 18.5938C166.885 18.9688 167.354 19.4922 167.688 20.1641C168.026 20.8307 168.195 21.6042 168.195 22.4844V22.7344H161.922C162.016 23.1406 162.19 23.4974 162.445 23.8047C162.706 24.1068 163.029 24.3438 163.414 24.5156C163.805 24.6823 164.242 24.7656 164.727 24.7656C165.591 24.7656 166.385 24.4844 167.109 23.9219L167.734 25.0703ZM161.852 21.625H166.703C166.651 21.1875 166.516 20.8073 166.297 20.4844C166.078 20.1562 165.794 19.901 165.445 19.7188C165.102 19.5312 164.714 19.4375 164.281 19.4375C163.844 19.4375 163.451 19.5312 163.102 19.7188C162.753 19.901 162.469 20.1562 162.25 20.4844C162.036 20.8125 161.904 21.1927 161.852 21.625ZM182.297 26H180.453L178.859 20.4141L177.266 26H175.422L172.922 18.1875H174.617L176.328 24.1719L178.133 18.1875H179.586L181.391 24.1797L183.109 18.1875H184.805L182.297 26ZM187.125 15.9219C186.88 15.9219 186.674 15.8359 186.508 15.6641C186.341 15.4922 186.258 15.2839 186.258 15.0391C186.258 14.7943 186.341 14.5885 186.508 14.4219C186.674 14.25 186.88 14.1641 187.125 14.1641C187.375 14.1641 187.583 14.25 187.75 14.4219C187.922 14.5885 188.008 14.7943 188.008 15.0391C188.008 15.2839 187.922 15.4922 187.75 15.6641C187.583 15.8359 187.375 15.9219 187.125 15.9219ZM187.922 26H186.32V18.1875H187.922V26ZM195.047 25.8047C194.5 26.0391 193.971 26.1562 193.461 26.1562C192.951 26.1562 192.503 26.0469 192.117 25.8281C191.737 25.6094 191.438 25.3021 191.219 24.9062C191.005 24.5052 190.898 24.0443 190.898 23.5234V19.6172H189.531V18.1875H190.977V16.2344H192.5V18.1875H194.781V19.6172H192.5V23.2266C192.5 23.6849 192.622 24.0495 192.867 24.3203C193.117 24.5859 193.438 24.7188 193.828 24.7188C194.156 24.7188 194.482 24.6198 194.805 24.4219L195.047 25.8047ZM196.625 26V14.2812H198.227V19.2734C198.805 18.4453 199.682 18.0312 200.859 18.0312C201.875 18.0312 202.669 18.3385 203.242 18.9531C203.815 19.5677 204.102 20.4245 204.102 21.5234V26H202.5V21.9141C202.5 21.138 202.312 20.5365 201.938 20.1094C201.568 19.6823 201.049 19.4688 200.383 19.4688C199.711 19.4688 199.182 19.6875 198.797 20.125C198.417 20.5573 198.227 21.1536 198.227 21.9141V26H196.625ZM218.758 16.7891C218.352 16.3932 217.875 16.0911 217.328 15.8828C216.781 15.6693 216.201 15.5625 215.586 15.5625C214.956 15.5625 214.375 15.6719 213.844 15.8906C213.318 16.1094 212.862 16.4219 212.477 16.8281C212.096 17.2344 211.799 17.7161 211.586 18.2734C211.378 18.8307 211.273 19.4453 211.273 20.1172C211.273 20.7891 211.378 21.4062 211.586 21.9688C211.794 22.5312 212.089 23.0182 212.469 23.4297C212.854 23.8411 213.307 24.1589 213.828 24.3828C214.354 24.6068 214.93 24.7188 215.555 24.7188C216.117 24.7188 216.635 24.6276 217.109 24.4453C217.583 24.263 218 24.0026 218.359 23.6641C218.719 23.3255 219.01 22.9193 219.234 22.4453C219.458 21.9714 219.602 21.4479 219.664 20.875H215.672V19.5391H221.188L221.234 20.1797C221.234 21.0703 221.096 21.8854 220.82 22.625C220.544 23.3646 220.151 24.0052 219.641 24.5469C219.135 25.0833 218.534 25.5 217.836 25.7969C217.143 26.0885 216.378 26.2344 215.539 26.2344C214.674 26.2344 213.875 26.0833 213.141 25.7812C212.411 25.474 211.773 25.0469 211.227 24.5C210.685 23.9479 210.263 23.3021 209.961 22.5625C209.664 21.8229 209.516 21.0208 209.516 20.1562C209.516 19.2812 209.667 18.474 209.969 17.7344C210.271 16.9896 210.693 16.3411 211.234 15.7891C211.781 15.237 212.422 14.8099 213.156 14.5078C213.891 14.2005 214.69 14.0469 215.555 14.0469C216.372 14.0469 217.151 14.1875 217.891 14.4688C218.635 14.75 219.297 15.1536 219.875 15.6797L218.758 16.7891ZM226.531 26.1562C225.75 26.1562 225.047 25.9792 224.422 25.625C223.797 25.2708 223.305 24.7891 222.945 24.1797C222.586 23.5651 222.406 22.8698 222.406 22.0938C222.406 21.3229 222.586 20.6328 222.945 20.0234C223.305 19.4089 223.797 18.9245 224.422 18.5703C225.047 18.2109 225.75 18.0312 226.531 18.0312C227.318 18.0312 228.021 18.2109 228.641 18.5703C229.26 18.9245 229.747 19.4089 230.102 20.0234C230.461 20.6328 230.641 21.3229 230.641 22.0938C230.641 22.8698 230.461 23.5651 230.102 24.1797C229.747 24.7891 229.26 25.2708 228.641 25.625C228.021 25.9792 227.318 26.1562 226.531 26.1562ZM226.523 24.7188C226.997 24.7188 227.419 24.6042 227.789 24.375C228.164 24.1406 228.458 23.8281 228.672 23.4375C228.891 23.0417 229 22.5938 229 22.0938C229 21.5938 228.891 21.1484 228.672 20.7578C228.458 20.362 228.164 20.0495 227.789 19.8203C227.419 19.5859 226.997 19.4688 226.523 19.4688C226.055 19.4688 225.633 19.5859 225.258 19.8203C224.883 20.0495 224.586 20.362 224.367 20.7578C224.154 21.1484 224.047 21.5938 224.047 22.0938C224.047 22.5938 224.154 23.0417 224.367 23.4375C224.586 23.8281 224.883 24.1406 225.258 24.375C225.633 24.6042 226.055 24.7188 226.523 24.7188ZM235.859 26.1562C235.078 26.1562 234.375 25.9792 233.75 25.625C233.125 25.2708 232.633 24.7891 232.273 24.1797C231.914 23.5651 231.734 22.8698 231.734 22.0938C231.734 21.3229 231.914 20.6328 232.273 20.0234C232.633 19.4089 233.125 18.9245 233.75 18.5703C234.375 18.2109 235.078 18.0312 235.859 18.0312C236.646 18.0312 237.349 18.2109 237.969 18.5703C238.589 18.9245 239.076 19.4089 239.43 20.0234C239.789 20.6328 239.969 21.3229 239.969 22.0938C239.969 22.8698 239.789 23.5651 239.43 24.1797C239.076 24.7891 238.589 25.2708 237.969 25.625C237.349 25.9792 236.646 26.1562 235.859 26.1562ZM235.852 24.7188C236.326 24.7188 236.747 24.6042 237.117 24.375C237.492 24.1406 237.786 23.8281 238 23.4375C238.219 23.0417 238.328 22.5938 238.328 22.0938C238.328 21.5938 238.219 21.1484 238 20.7578C237.786 20.362 237.492 20.0495 237.117 19.8203C236.747 19.5859 236.326 19.4688 235.852 19.4688C235.383 19.4688 234.961 19.5859 234.586 19.8203C234.211 20.0495 233.914 20.362 233.695 20.7578C233.482 21.1484 233.375 21.5938 233.375 22.0938C233.375 22.5938 233.482 23.0417 233.695 23.4375C233.914 23.8281 234.211 24.1406 234.586 24.375C234.961 24.6042 235.383 24.7188 235.852 24.7188ZM244.922 26.0312C244.188 26.0312 243.529 25.8568 242.945 25.5078C242.362 25.1589 241.901 24.6823 241.562 24.0781C241.229 23.474 241.062 22.7917 241.062 22.0312C241.062 21.2656 241.229 20.5833 241.562 19.9844C241.901 19.3802 242.362 18.9036 242.945 18.5547C243.529 18.2057 244.19 18.0312 244.93 18.0312C245.513 18.0312 246.049 18.1432 246.539 18.3672C247.034 18.5911 247.453 18.8984 247.797 19.2891L247.875 18.1875H249.289V25.7891C249.289 26.6641 249.109 27.4193 248.75 28.0547C248.396 28.6953 247.893 29.1901 247.242 29.5391C246.591 29.888 245.82 30.0625 244.93 30.0625C243.674 30.0625 242.568 29.6536 241.609 28.8359L242.289 27.5391C242.992 28.263 243.841 28.625 244.836 28.625C245.414 28.625 245.914 28.5052 246.336 28.2656C246.763 28.026 247.094 27.6901 247.328 27.2578C247.568 26.8307 247.688 26.3255 247.688 25.7422V24.8906C247.344 25.2448 246.935 25.5234 246.461 25.7266C245.987 25.9297 245.474 26.0312 244.922 26.0312ZM245.188 24.6094C245.646 24.6094 246.062 24.5052 246.438 24.2969C246.818 24.0885 247.12 23.8047 247.344 23.4453C247.573 23.0807 247.688 22.6667 247.688 22.2031V21.8516C247.688 21.388 247.573 20.9766 247.344 20.6172C247.12 20.2578 246.818 19.974 246.438 19.7656C246.062 19.5573 245.646 19.4531 245.188 19.4531C244.708 19.4531 244.281 19.5677 243.906 19.7969C243.531 20.0208 243.234 20.3281 243.016 20.7188C242.797 21.1042 242.688 21.5417 242.688 22.0312C242.688 22.5208 242.797 22.9609 243.016 23.3516C243.234 23.7422 243.531 24.0495 243.906 24.2734C244.281 24.4974 244.708 24.6094 245.188 24.6094ZM253.172 26H251.469V14.2812H253.172V26ZM262.391 25.0703C261.422 25.7943 260.357 26.1562 259.195 26.1562C258.367 26.1562 257.625 25.974 256.969 25.6094C256.312 25.2448 255.794 24.7474 255.414 24.1172C255.034 23.487 254.844 22.776 254.844 21.9844C254.844 21.2292 255.018 20.5547 255.367 19.9609C255.716 19.362 256.193 18.8906 256.797 18.5469C257.401 18.2031 258.086 18.0312 258.852 18.0312C259.643 18.0312 260.339 18.2188 260.938 18.5938C261.542 18.9688 262.01 19.4922 262.344 20.1641C262.682 20.8307 262.852 21.6042 262.852 22.4844V22.7344H256.578C256.672 23.1406 256.846 23.4974 257.102 23.8047C257.362 24.1068 257.685 24.3438 258.07 24.5156C258.461 24.6823 258.898 24.7656 259.383 24.7656C260.247 24.7656 261.042 24.4844 261.766 23.9219L262.391 25.0703ZM256.508 21.625H261.359C261.307 21.1875 261.172 20.8073 260.953 20.4844C260.734 20.1562 260.451 19.901 260.102 19.7188C259.758 19.5312 259.37 19.4375 258.938 19.4375C258.5 19.4375 258.107 19.5312 257.758 19.7188C257.409 19.901 257.125 20.1562 256.906 20.4844C256.693 20.8125 256.56 21.1927 256.508 21.625Z" fill="#1E2329"/>
</svg>
