<svg width="17" height="15" viewBox="0 0 17 15" fill="none" xmlns="http://www.w3.org/2000/svg">
<path d="M7.76966 12.9196L7.76858 12.9186C5.71649 11.0577 4.07365 9.56418 2.93508 8.17121C1.80474 6.78832 1.25 5.59645 1.25 4.35161C1.25 2.3219 2.82803 0.75 4.85161 0.75C6.00157 0.75 7.1177 1.28922 7.84289 2.13416L8.41201 2.79727L8.98114 2.13416C9.70633 1.28922 10.8225 0.75 11.9724 0.75C13.996 0.75 15.574 2.3219 15.574 4.35161C15.574 5.59645 15.0193 6.78832 13.889 8.17121C12.7504 9.56418 11.1075 11.0577 9.05545 12.9186L9.05437 12.9196L8.41201 13.5043L7.76966 12.9196Z" stroke="#252C32" stroke-width="1.5"/>
</svg>
