<svg width="21" height="21" viewBox="0 0 21 21" fill="none" xmlns="http://www.w3.org/2000/svg">
<g clip-path="url(#clip0_368_4387)">
<path d="M10.5543 5.85142C8.09222 5.85142 6.10627 7.83737 6.10627 10.2995C6.10627 12.7616 8.09222 14.7475 10.5543 14.7475C13.0164 14.7475 15.0024 12.7616 15.0024 10.2995C15.0024 7.83737 13.0164 5.85142 10.5543 5.85142ZM10.5543 13.1913C8.96324 13.1913 7.66251 11.8944 7.66251 10.2995C7.66251 8.70452 8.95937 7.40766 10.5543 7.40766C12.1493 7.40766 13.4461 8.70452 13.4461 10.2995C13.4461 11.8944 12.1454 13.1913 10.5543 13.1913ZM16.2218 5.66947C16.2218 6.24629 15.7573 6.70697 15.1843 6.70697C14.6075 6.70697 14.1468 6.24242 14.1468 5.66947C14.1468 5.09653 14.6114 4.63198 15.1843 4.63198C15.7573 4.63198 16.2218 5.09653 16.2218 5.66947ZM19.1678 6.72245C19.102 5.33268 18.7846 4.10162 17.7664 3.08736C16.7522 2.0731 15.5211 1.75565 14.1313 1.68597C12.699 1.60468 8.40579 1.60468 6.97343 1.68597C5.58752 1.75178 4.35647 2.06922 3.33834 3.08349C2.3202 4.09775 2.00663 5.32881 1.93695 6.71858C1.85565 8.15094 1.85565 12.4441 1.93695 13.8765C2.00276 15.2663 2.3202 16.4973 3.33834 17.5116C4.35647 18.5259 5.58365 18.8433 6.97343 18.913C8.40579 18.9943 12.699 18.9943 14.1313 18.913C15.5211 18.8472 16.7522 18.5297 17.7664 17.5116C18.7807 16.4973 19.0981 15.2663 19.1678 13.8765C19.2491 12.4441 19.2491 8.15481 19.1678 6.72245ZM17.3174 15.4134C17.0154 16.1721 16.4309 16.7567 15.6682 17.0625C14.5262 17.5155 11.8163 17.4109 10.5543 17.4109C9.2923 17.4109 6.57856 17.5116 5.44042 17.0625C4.68166 16.7606 4.0971 16.176 3.79127 15.4134C3.33834 14.2714 3.44286 11.5615 3.44286 10.2995C3.44286 9.03745 3.34221 6.32371 3.79127 5.18557C4.09323 4.42681 4.67778 3.84225 5.44042 3.53642C6.58243 3.08349 9.2923 3.18801 10.5543 3.18801C11.8163 3.18801 14.5301 3.08736 15.6682 3.53642C16.427 3.83838 17.0115 4.42294 17.3174 5.18557C17.7703 6.32758 17.6658 9.03745 17.6658 10.2995C17.6658 11.5615 17.7703 14.2752 17.3174 15.4134Z" fill="#252C32"/>
</g>
<defs>
<clipPath id="clip0_368_4387">
<rect width="19.8207" height="19.8207" fill="white" transform="translate(0.641602 0.392578)"/>
</clipPath>
</defs>
</svg>
