<svg width="16" height="17" viewBox="0 0 16 17" fill="none" xmlns="http://www.w3.org/2000/svg">
<circle cx="7.76829" cy="8.74388" r="7.76829" fill="#252C32"/>
<path d="M7.35765 9.99987L6.64057 9.18036L7.48057 8.40182C7.68545 8.20377 7.84935 8.01255 7.97228 7.82816C8.09521 7.63694 8.15667 7.43548 8.15667 7.22377C8.15667 7.05987 8.09521 6.9267 7.97228 6.82426C7.85618 6.72182 7.64789 6.6706 7.3474 6.6706L6.03618 7.11109L5.54448 5.73841C5.73569 5.58133 6.01228 5.42085 6.37423 5.25694C6.74301 5.09304 7.18691 5.01109 7.70594 5.01109C8.50496 5.01109 9.08545 5.17841 9.4474 5.51304C9.80935 5.84767 9.99033 6.27792 9.99033 6.80377C9.99033 7.28182 9.8674 7.70865 9.62155 8.08426C9.38252 8.45304 9.10594 8.75011 8.79179 8.97548L7.35765 9.99987ZM7.35765 12.6735L6.23082 11.5467L7.35765 10.4199L8.48448 11.5467L7.35765 12.6735Z" fill="white"/>
</svg>
