<svg width="13" height="13" viewBox="0 0 13 13" fill="none" xmlns="http://www.w3.org/2000/svg">
<path d="M3.45871 8.10864L5.14468 9.79461M3.45871 8.10864C3.45871 8.10864 4.45414 5.62042 5.87106 3.89371M3.45871 8.10864C-0.207578 7.19189 3.08639 3.89371 5.87106 3.89371M5.14468 9.79461C5.14468 9.79461 7.6329 8.79919 9.35962 7.38227M5.14468 9.79461C6.06143 13.4602 9.35962 10.1669 9.35962 7.38227M5.87106 3.89371C7.30414 2.14732 9.66661 1.36475 11.8886 1.36475C11.8886 3.58672 11.106 5.94849 9.35962 7.38227M8.16539 5.02261L8.66205 4.52595M1.89146 10.0236C1.22269 10.5863 1 12.2568 1 12.2568C1 12.2568 2.6663 12.0334 3.22759 11.3633C3.54371 10.9881 3.5395 10.4121 3.18755 10.0637C3.01355 9.9001 2.78578 9.80576 2.54708 9.79839C2.30839 9.79102 2.07523 9.87112 1.89146 10.0236Z" stroke="#0C3BED" stroke-width="0.75092" stroke-linecap="round" stroke-linejoin="round"/>
</svg>
