<svg width="16" height="16" viewBox="0 0 16 16" fill="none" xmlns="http://www.w3.org/2000/svg">
<path d="M0.964844 4.0062H14.5648M4.89764 3.9998V3.6334C4.89764 2.88189 5.19618 2.16115 5.72759 1.62975C6.25899 1.09834 6.97973 0.799805 7.73124 0.799805C8.48276 0.799805 9.2035 1.09834 9.7349 1.62975C10.2663 2.16115 10.5648 2.88189 10.5648 3.6334V3.9998M6.14724 7.1998V11.9998M9.38884 7.1998V11.9998M11.3648 15.1998H4.16484C3.7405 15.1998 3.33353 15.0312 3.03347 14.7312C2.73341 14.4311 2.56484 14.0242 2.56484 13.5998V3.9998H12.9648V13.5998C12.9648 14.0242 12.7963 14.4311 12.4962 14.7312C12.1962 15.0312 11.7892 15.1998 11.3648 15.1998Z" stroke="#252C32" stroke-width="1.28" stroke-linecap="round" stroke-linejoin="round"/>
</svg>
