<svg width="20" height="21" viewBox="0 0 20 21" fill="none" xmlns="http://www.w3.org/2000/svg">
<g clip-path="url(#clip0_368_4379)">
<path d="M17.7755 6.26582C17.7881 6.44189 17.7881 6.61799 17.7881 6.79405C17.7881 12.1642 13.7007 18.3519 6.23018 18.3519C3.92865 18.3519 1.79065 17.6854 -0.0078125 16.5284C0.319191 16.5661 0.633574 16.5786 0.973159 16.5786C2.87219 16.5786 4.62037 15.9373 6.01637 14.8431C4.23049 14.8053 2.73387 13.6357 2.21823 12.0259C2.46978 12.0636 2.72129 12.0888 2.98543 12.0888C3.35014 12.0888 3.71488 12.0385 4.05443 11.9505C2.1931 11.5731 0.797056 9.9382 0.797056 7.96367V7.91338C1.33783 8.21522 1.96671 8.40387 2.63322 8.42899C1.53906 7.69954 0.822219 6.45447 0.822219 5.04588C0.822219 4.2913 1.02341 3.59959 1.37557 2.99591C3.37526 5.46092 6.38108 7.07069 9.75158 7.2468C9.68871 6.94496 9.65096 6.63057 9.65096 6.31615C9.65096 4.07749 11.462 2.25391 13.7132 2.25391C14.8828 2.25391 15.9392 2.74439 16.6813 3.53672C17.5993 3.36065 18.4797 3.02107 19.2595 2.55575C18.9576 3.49901 18.3162 4.29134 17.4736 4.79437C18.2911 4.70637 19.0834 4.47994 19.8128 4.16556C19.2596 4.97043 18.5678 5.68727 17.7755 6.26582Z" fill="#252C32"/>
</g>
<defs>
<clipPath id="clip0_368_4379">
<rect width="19.8207" height="19.8207" fill="white" transform="translate(0 0.392578)"/>
</clipPath>
</defs>
</svg>
