<svg width="21" height="17" viewBox="0 0 21 17" fill="none" xmlns="http://www.w3.org/2000/svg">
<path d="M18.0689 3.41492C17.9929 3.11692 17.7769 2.89192 17.5299 2.82292C17.0919 2.69992 14.9629 2.41992 10.4629 2.41992C5.96291 2.41992 3.83491 2.69992 3.39391 2.82292C3.14991 2.89092 2.93391 3.11592 2.85691 3.41492C2.74791 3.83892 2.46291 5.61492 2.46291 8.41992C2.46291 11.2239 2.74791 12.9999 2.85691 13.4259C2.93291 13.7229 3.14891 13.9479 3.39491 14.0159C3.83491 14.1399 5.96191 14.4199 10.4619 14.4199C14.9619 14.4199 17.0909 14.1399 17.5309 14.0169C17.7749 13.9489 17.9909 13.7239 18.0679 13.4249C18.1779 13.0009 18.4619 11.2199 18.4619 8.41992C18.4619 5.61992 18.1779 3.83992 18.0689 3.41492ZM20.0059 2.91792C20.4629 4.69992 20.4629 8.41992 20.4629 8.41992C20.4629 8.41992 20.4629 12.1399 20.0059 13.9219C19.7519 14.9069 19.0089 15.6819 18.0679 15.9439C16.3589 16.4199 10.4619 16.4199 10.4619 16.4199C10.4619 16.4199 4.56891 16.4199 2.85691 15.9439C1.91191 15.6779 1.16991 14.9039 0.918914 13.9219C0.461914 12.1399 0.461914 8.41992 0.461914 8.41992C0.461914 8.41992 0.461914 4.69992 0.918914 2.91792C1.17291 1.93292 1.91591 1.15792 2.85691 0.895922C4.56991 0.419922 10.4629 0.419922 10.4629 0.419922C10.4629 0.419922 16.3589 0.419922 18.0679 0.895922C19.0119 1.16192 19.7549 1.93592 20.0059 2.91792ZM8.46291 11.9199V4.91992L14.4629 8.41992L8.46291 11.9199Z" fill="#252C32"/>
</svg>
